<svg width="25" height="18" viewBox="0 0 25 18" fill="none" xmlns="http://www.w3.org/2000/svg">
<path d="M0 9C0 9.74634 0.634326 10.3521 1.41591 10.3521H19.9222L14.4522 15.5754C13.8986 16.1041 13.8986 16.96 14.4522 17.4873L14.5739 17.6035C15.1275 18.1322 16.0239 18.1322 16.5761 17.6035L24.5848 9.95595C25.1384 9.42729 25.1384 8.57136 24.5848 8.04405L16.5761 0.39649C16.0224 -0.132164 15.1261 -0.132164 14.5739 0.39649L14.4522 0.512682C13.8986 1.04134 13.8986 1.89727 14.4522 2.42457L19.9222 7.64794L1.41591 7.64794C0.634326 7.64794 0 8.25366 0 9Z" fill="white"/>
</svg>
