<svg width="161" height="22" viewBox="0 0 161 22" fill="none" xmlns="http://www.w3.org/2000/svg">
<path d="M4.94827 18.8194C4.87909 19.2435 5.05818 19.6698 5.40946 19.9173C5.76075 20.1648 6.22252 20.1899 6.59859 19.982L11 17.549L15.4014 19.982C15.7775 20.1899 16.2393 20.1648 16.5905 19.9173C16.9418 19.6698 17.1209 19.2435 17.0517 18.8194L16.1986 13.5894L19.8031 9.89508C20.0969 9.59405 20.1976 9.15406 20.0641 8.75524C19.9305 8.35642 19.5852 8.06575 19.1695 8.00223L14.2335 7.24808L12.0158 2.52322C11.8309 2.12939 11.4351 1.8779 11 1.8779C10.5649 1.8779 10.1691 2.12939 9.98423 2.52322L7.7665 7.24808L2.83053 8.00223C2.41478 8.06575 2.06946 8.35642 1.93594 8.75524C1.80243 9.15406 1.90314 9.59405 2.19685 9.89508L5.80137 13.5894L4.94827 18.8194Z" fill="#F4895A" stroke="#F4895A" stroke-width="2.2442" stroke-linecap="round" stroke-linejoin="round"/>
<path d="M37.9483 18.8194C37.8791 19.2435 38.0582 19.6698 38.4095 19.9173C38.7607 20.1648 39.2225 20.1899 39.5986 19.982L44 17.549L48.4014 19.982C48.7775 20.1899 49.2393 20.1648 49.5905 19.9173C49.9418 19.6698 50.1209 19.2435 50.0517 18.8194L49.1986 13.5894L52.8031 9.89508C53.0969 9.59405 53.1976 9.15406 53.0641 8.75524C52.9305 8.35642 52.5852 8.06575 52.1695 8.00223L47.2335 7.24808L45.0158 2.52322C44.8309 2.12939 44.4351 1.8779 44 1.8779C43.5649 1.8779 43.1691 2.12939 42.9842 2.52322L40.7665 7.24808L35.8305 8.00223C35.4148 8.06575 35.0695 8.35642 34.9359 8.75524C34.8024 9.15406 34.9031 9.59405 35.1969 9.89508L38.8014 13.5894L37.9483 18.8194Z" fill="#F4895A" stroke="#F4895A" stroke-width="2.2442" stroke-linecap="round" stroke-linejoin="round"/>
<path d="M72.9483 18.8194C72.8791 19.2435 73.0582 19.6698 73.4095 19.9173C73.7607 20.1648 74.2225 20.1899 74.5986 19.982L79 17.549L83.4014 19.982C83.7775 20.1899 84.2393 20.1648 84.5905 19.9173C84.9418 19.6698 85.1209 19.2435 85.0517 18.8194L84.1986 13.5894L87.8031 9.89508C88.0969 9.59405 88.1976 9.15406 88.0641 8.75524C87.9305 8.35642 87.5852 8.06575 87.1695 8.00223L82.2335 7.24808L80.0158 2.52322C79.8309 2.12939 79.4351 1.8779 79 1.8779C78.5649 1.8779 78.1691 2.12939 77.9842 2.52322L75.7665 7.24808L70.8305 8.00223C70.4148 8.06575 70.0695 8.35642 69.9359 8.75524C69.8024 9.15406 69.9031 9.59405 70.1969 9.89508L73.8014 13.5894L72.9483 18.8194Z" fill="#F4895A" stroke="#F4895A" stroke-width="2.2442" stroke-linecap="round" stroke-linejoin="round"/>
<path d="M107.948 18.8194C107.879 19.2435 108.058 19.6698 108.409 19.9173C108.761 20.1648 109.223 20.1899 109.599 19.982L114 17.549L118.401 19.982C118.777 20.1899 119.239 20.1648 119.591 19.9173C119.942 19.6698 120.121 19.2435 120.052 18.8194L119.199 13.5894L122.803 9.89508C123.097 9.59405 123.198 9.15406 123.064 8.75524C122.931 8.35642 122.585 8.06575 122.169 8.00223L117.233 7.24808L115.016 2.52322C114.831 2.12939 114.435 1.8779 114 1.8779C113.565 1.8779 113.169 2.12939 112.984 2.52322L110.767 7.24808L105.831 8.00223C105.415 8.06575 105.069 8.35642 104.936 8.75524C104.802 9.15406 104.903 9.59405 105.197 9.89508L108.801 13.5894L107.948 18.8194Z" fill="#F4895A" stroke="#F4895A" stroke-width="2.2442" stroke-linecap="round" stroke-linejoin="round"/>
<path d="M143.948 18.8194C143.879 19.2435 144.058 19.6698 144.409 19.9173C144.761 20.1648 145.223 20.1899 145.599 19.982L150 17.549L154.401 19.982C154.777 20.1899 155.239 20.1648 155.591 19.9173C155.942 19.6698 156.121 19.2435 156.052 18.8194L155.199 13.5894L158.803 9.89508C159.097 9.59405 159.198 9.15406 159.064 8.75524C158.931 8.35642 158.585 8.06575 158.169 8.00223L153.233 7.24808L151.016 2.52322C150.831 2.12939 150.435 1.8779 150 1.8779C149.565 1.8779 149.169 2.12939 148.984 2.52322L146.767 7.24808L141.831 8.00223C141.415 8.06575 141.069 8.35642 140.936 8.75524C140.802 9.15406 140.903 9.59405 141.197 9.89508L144.801 13.5894L143.948 18.8194Z" fill="#F4895A" stroke="#F4895A" stroke-width="2.2442" stroke-linecap="round" stroke-linejoin="round"/>
</svg>
